<svg version="1.2" xmlns="http://www.w3.org/2000/svg" viewBox="0 0 375 324" width="375" height="324">
	<title>illustration-svg</title>
	<defs>
		<clipPath clipPathUnits="userSpaceOnUse" id="cp1">
			<path d="m0 0h375v324h-375z"/>
		</clipPath>
		<linearGradient id="g1" x1="156.1" y1="244.4" x2="162.9" y2="244.4" gradientUnits="userSpaceOnUse">
			<stop offset="0" stop-color="#183866"/>
			<stop offset="1" stop-color="#1a7fc1"/>
		</linearGradient>
		<linearGradient id="g2" x1="172.9" y1="245.6" x2="176.6" y2="245.6" gradientUnits="userSpaceOnUse">
			<stop offset="0" stop-color="#000000"/>
			<stop offset="1" stop-color="#000000" stop-opacity="0"/>
		</linearGradient>
		<linearGradient id="g3" x1="202.6" y1="194.1" x2="218.5" y2="201.5" gradientUnits="userSpaceOnUse">
			<stop offset="0" stop-color="#000000"/>
			<stop offset="1" stop-color="#000000" stop-opacity="0"/>
		</linearGradient>
		<linearGradient id="g4" x1="172" y1="95.8" x2="169.8" y2="95.2" gradientUnits="userSpaceOnUse">
			<stop offset="0" stop-color="#000000"/>
			<stop offset="1" stop-color="#000000" stop-opacity="0"/>
		</linearGradient>
		<linearGradient id="g5" x1="215.8" y1="233" x2="162.1" y2="215.5" gradientUnits="userSpaceOnUse">
			<stop offset="0" stop-color="#000000"/>
			<stop offset="1" stop-color="#000000" stop-opacity="0"/>
		</linearGradient>
		<linearGradient id="g6" x1="222.2" y1="40" x2="219.7" y2="39.3" gradientUnits="userSpaceOnUse">
			<stop offset="0" stop-color="#000000"/>
			<stop offset="1" stop-color="#000000" stop-opacity="0"/>
		</linearGradient>
		<linearGradient id="g7" x1="195.4" y1="199" x2="178.1" y2="203.6" gradientUnits="userSpaceOnUse">
			<stop offset="0" stop-color="#000000"/>
			<stop offset="1" stop-color="#000000" stop-opacity="0"/>
		</linearGradient>
		<linearGradient id="g8" x1="340" y1="194.7" x2="23.5" y2="179.5" gradientUnits="userSpaceOnUse">
			<stop offset="0" stop-color="#000000"/>
			<stop offset="1" stop-color="#000000" stop-opacity="0"/>
		</linearGradient>
		<linearGradient id="g9" x1="161.7" y1="144" x2="324.8" y2="144" gradientUnits="userSpaceOnUse">
			<stop offset="0" stop-color="#183866"/>
			<stop offset="1" stop-color="#1a7fc1"/>
		</linearGradient>
		<linearGradient id="g10" x1="218.3" y1="166.4" x2="220.2" y2="174.1" gradientUnits="userSpaceOnUse">
			<stop offset="0" stop-color="#000000"/>
			<stop offset="1" stop-color="#000000" stop-opacity="0"/>
		</linearGradient>
		<linearGradient id="g11" x1="189.7" y1="164.3" x2="242.8" y2="181.3" gradientUnits="userSpaceOnUse">
			<stop offset="0" stop-color="#000000"/>
			<stop offset="1" stop-color="#000000" stop-opacity="0"/>
		</linearGradient>
		<linearGradient id="g12" x1="189" y1="169.4" x2="188.6" y2="172.4" gradientUnits="userSpaceOnUse">
			<stop offset="0" stop-color="#000000"/>
			<stop offset="1" stop-color="#000000" stop-opacity="0"/>
		</linearGradient>
		<linearGradient id="g13" x1="107.2" y1="209.4" x2="79.6" y2="208.3" gradientUnits="userSpaceOnUse">
			<stop offset="0" stop-color="#000000"/>
			<stop offset="1" stop-color="#000000" stop-opacity="0"/>
		</linearGradient>
		<linearGradient id="g14" x1="111.6" y1="233.4" x2="88.5" y2="232.7" gradientUnits="userSpaceOnUse">
			<stop offset="0" stop-color="#000000"/>
			<stop offset="1" stop-color="#000000" stop-opacity="0"/>
		</linearGradient>
		<linearGradient id="g15" x1="66.4" y1="250.4" x2="65.6" y2="254.6" gradientUnits="userSpaceOnUse">
			<stop offset="0" stop-color="#000000"/>
			<stop offset="1" stop-color="#000000" stop-opacity="0"/>
		</linearGradient>
		<linearGradient id="g16" x1="60.6" y1="64.2" x2="58.6" y2="76.1" gradientUnits="userSpaceOnUse">
			<stop offset="0" stop-color="#000000"/>
			<stop offset="1" stop-color="#000000" stop-opacity="0"/>
		</linearGradient>
		<linearGradient id="g17" x1="167.9" y1="80.9" x2="193.4" y2="80.9" gradientUnits="userSpaceOnUse">
			<stop offset="0" stop-color="#ecc4d7"/>
			<stop offset=".4" stop-color="#efd4d1"/>
			<stop offset="1" stop-color="#f2eac9"/>
		</linearGradient>
		<linearGradient id="g18" x1="196.9" y1="144.8" x2="220.6" y2="144.8" gradientUnits="userSpaceOnUse">
			<stop offset="0" stop-color="#ecc4d7"/>
			<stop offset=".4" stop-color="#efd4d1"/>
			<stop offset="1" stop-color="#f2eac9"/>
		</linearGradient>
		<linearGradient id="g19" x1="230.3" y1="150.6" x2="249" y2="150.6" gradientUnits="userSpaceOnUse">
			<stop offset="0" stop-color="#ecc4d7"/>
			<stop offset=".4" stop-color="#efd4d1"/>
			<stop offset="1" stop-color="#f2eac9"/>
		</linearGradient>
		<linearGradient id="g20" x1="354.7" y1="142.2" x2="266.2" y2="201" gradientUnits="userSpaceOnUse">
			<stop offset="0" stop-color="#362958" stop-opacity=".5"/>
			<stop offset="1" stop-color="#34313d" stop-opacity="0"/>
		</linearGradient>
		<linearGradient id="g21" x1="217.6" y1="34.2" x2="216.9" y2="33.9" gradientUnits="userSpaceOnUse">
			<stop offset="0" stop-color="#000000"/>
			<stop offset="1" stop-color="#000000" stop-opacity="0"/>
		</linearGradient>
	</defs>
	<style>
		.s0 { fill: #eff1f7 } 
		.s1 { fill: #3f3d56 } 
		.s2 { fill: #2bd0d0 } 
		.s3 { fill: #25233a } 
		.s4 { fill: url(#g1) } 
		.s5 { fill: url(#g2) } 
		.s6 { fill: url(#g3) } 
		.s7 { opacity: .3;fill: url(#g4) } 
		.s8 { opacity: .3;fill: url(#g5) } 
		.s9 { fill: url(#g6) } 
		.s10 { fill: url(#g7) } 
		.s11 { fill: #503164 } 
		.s12 { opacity: .2;fill: url(#g8) } 
		.s13 { opacity: .2;fill: url(#g9) } 
		.s14 { fill: url(#g10) } 
		.s15 { fill: url(#g11) } 
		.s16 { fill: url(#g12) } 
		.s17 { fill: url(#g13) } 
		.s18 { fill: url(#g14) } 
		.s19 { fill: url(#g15) } 
		.s20 { fill: #30c59b } 
		.s21 { fill: url(#g16) } 
		.s22 { fill: url(#g17) } 
		.s23 { opacity: .3;fill: #ffffff } 
		.s24 { fill: url(#g18) } 
		.s25 { fill: url(#g19) } 
		.s26 { fill: url(#g20) } 
		.s27 { fill: #3a3054 } 
		.s28 { fill: #51466b } 
		.s29 { fill: url(#g21) } 
	</style>
	<g id="Clip-Path" clip-path="url(#cp1)">
		<g id="Layer">
			<path id="Layer" class="s0" d="m392.7 62.4c25.8 27.6 70.3 18.9 86.8 56.1 6.9 15.6 7.4 33 5.6 49.8-4.3 41.9-23.6 84.6-61 108-26.7 16.6-59.5 21.8-91.4 24.8-38.9 3.7-78.1 4.8-117.2 3.3-22.1-0.8-44.6-2.6-64.9-10.8-16.1-6.7-30.2-17.1-43.2-28.2-11.1-9.5-21.9-19.9-27.3-33-8-19.5-2.4-42.2 10.1-59.5 12.4-17.2 31-29.8 50.2-40.2 12-6.5 24.6-12.5 34.2-21.8 11.3-11 17.4-25.8 25.1-39.3 14.8-25.6 37.1-48.3 65.8-59.5 28.6-11.3 63.9-9.5 88.4 8.4 15.6 11.3 25.7 28 38.8 41.9z"/>
			<path id="Layer" class="s1" d="m166 196.1l-38.5-27.5c0 0-2.9-25 0-32.2 2.9-7.3 13.2-5.4 13.2-5.4z"/>
			<path id="Layer" class="s2" d="m189.2 241.4l-15.3 4.4c-2.2 0.6-4.6-0.6-5.2-2.8-0.7-2.1 0.6-4.4 2.8-5l15.3-4.4c2.2-0.6 4.5 0.6 5.2 2.8 0.7 2.1-0.6 4.3-2.8 5z"/>
			<circle id="Layer" class="s3" cx="188.4" cy="250.9" r="6.8"/>
			<circle id="Layer" class="s1" cx="187.5" cy="252.5" r="3.4"/>
			<circle id="Layer" class="s3" cx="160.4" cy="244.1" r="6.8"/>
			<path id="Layer" class="s4" d="m162.9 244.4c0 0.9-0.4 1.7-1 2.4-0.6 0.6-1.5 1-2.4 1-0.9 0-1.8-0.4-2.4-1-0.7-0.7-1-1.5-1-2.4 0-0.9 0.3-1.8 1-2.5 0.6-0.6 1.5-1 2.4-1 0.9 0 1.8 0.4 2.4 1 0.6 0.7 1 1.6 1 2.5z"/>
			<circle id="Layer" class="s3" cx="158.5" cy="253.4" r="6.8"/>
			<path id="Layer" class="s1" d="m164.2 253.7c0 0.9-0.4 1.8-1.1 2.4-0.6 0.7-1.5 1-2.4 1-0.9 0-1.8-0.3-2.4-1-0.6-0.6-1-1.5-1-2.4 0-0.9 0.4-1.8 1-2.4 0.6-0.7 1.5-1 2.4-1 0.9 0 1.8 0.3 2.4 1 0.7 0.6 1.1 1.5 1.1 2.4z"/>
			<path id="Layer" class="s2" d="m189.7 248.3l-31.6-6.2c-2.2-0.5-3.7-2.6-3.2-4.8 0.5-2.2 2.6-3.6 4.8-3.1l31.7 6.2c2.2 0.5 3.6 2.6 3.2 4.8-0.5 2.1-2.6 3.6-4.9 3.1z"/>
			<path id="Layer" class="s2" d="m170.4 198h8.7v36.7c0 2.4-2 4.4-4.4 4.4-1.1 0-2.2-0.5-3-1.3-0.9-0.8-1.3-1.9-1.3-3.1v-36.7z"/>
			<path id="Layer" class="s2" d="m173.6 245.7l-15.3 4.4c-2.2 0.6-4.5-0.6-5.2-2.7-0.6-2.2 0.6-4.4 2.8-5l15.3-4.4c2.2-0.6 4.6 0.6 5.2 2.7 0.7 2.2-0.6 4.4-2.8 5z"/>
			<path id="Layer" class="s5" d="m176.6 245.5l-1.9 0.3q-0.9 0.2-1.8 0.1l0.8-0.1q0.8-0.2 1.5-0.5z"/>
			<path id="Layer" class="s6" d="m192.2 237c0 1-0.4 1.9-0.9 2.7l-12.8-2.7q0.5-0.7 0.7-1.5l7.8-2.5q0.8-0.2 1.6-0.1 0.8 0.1 1.5 0.5c0.9 0.5 1.6 1.4 1.9 2.5q0.2 0.6 0.2 1.1z"/>
			<path id="Layer" class="s7" d="m169.9 236q-0.1-0.5-0.1-1v-36.4h3.7v39.3q-0.1 0.3 0 0.5-0.9-0.2-1.8-0.3-0.6 0-1.3 0h0.3c0.2-0.1-0.6-1.3-0.8-2.1z"/>
			<path id="Layer" class="s8" d="m193 247.7c-0.6 0.3-1.3 0.5-2 0.5q-0.4 0-0.8-0.1l-14-2.8-1.1-0.2q-0.6 0.5-1.4 0.7l-0.7 0.2-14.3 4.1c-2.2 0.6-4.5-0.6-5.1-2.7 1.2 1.1 3.1 1.2 4.5 0.2 1.7-1.1 8.7-2.9 12.6-3.9 1.9-0.4 3.3-1.8 3.7-3.7q0-0.1 0-0.3c0.7 0.7 1.9 1.5 4.1 2.1 5.3 1.6 14.1 2.7 14.1 2.7 0 0 1.6 1.5 0.4 3.2z"/>
			<path id="Layer" class="s9" d="m194 246.5q-0.5 0.8-1.2 1.3 0.6-0.6 1.2-1.3z"/>
			<path id="Layer" class="s10" d="m170.6 235.7c0.1 0.7 0.5 1.4 1 1.9q-0.2 0.1-0.4 0.1l-13.2 3.9c-2.1-0.5-3.4-2.4-3.2-4.5 0.3-2 2-3.6 4.1-3.6q0.4 0 0.9 0z"/>
			<path id="Layer" class="s11" d="m176.2 86.1c0 0-12.1 8.1-15.7 1.8-3.5-6.4 2.9-5.3-3.2-9.3-6-4.1-10.4-7.4-6.8-11.5 3.6-4.1 9-5.3 7.5-10.7-1.5-5.4 3.7-9.8 8.2-10.3 4.4-0.4 3.6 3.8 14.1 2.7 10.4-1.1 10.6 11.9 10.6 11.9z"/>
			<path id="Layer" class="s2" d="m110.1 187.1c0 0 187.1-19.2 201.4-15.4 14.3 3.8 13.2 72 13.2 72l-39.6-5.4c0 0-2.8-38.6-5.8-48.4-2.9-9.8-8-9.3-8-9.3 0 0-129.1 18.7-143.4 20.2-14.2 1.5-14.5 16.6-14.5 16.6v58.4l-7.4-0.2c-9.8-16.1 4.1-88.5 4.1-88.5z"/>
			<path id="Layer" class="s12" d="m110.1 187.1c0 0 187.1-19.2 201.4-15.4 14.3 3.8 13.2 72 13.2 72l-39.6-5.4c0 0-2.8-38.6-5.8-48.4-2.9-9.8-8-9.3-8-9.3 0 0-129.1 18.7-143.4 20.2-14.2 1.5-14.5 16.6-14.5 16.6v58.4l-7.4-0.2c-9.8-16.1 4.1-88.5 4.1-88.5z"/>
			<path id="Layer" class="s2" d="m68.3 194.1c0 0 3.6-19.8 28.7-24.9l177.5-20.4c0 0 17.5-0.7 25.4 4.1 8 4.9 19.4 8.9 24.1 30.7 4.6 21.8 5.7 59.1 5.7 59.1l-4.4 0.7c0 0-6.4-67.5-13.2-71.8-6.9-4.3-191.4 21.9-191.4 21.9 0 0-12.8 2.6-13.9 21.5-1.1 19 0 60.2 0 60.2l-38.5-15.6z"/>
			<path id="Layer" class="s13" d="m274.8 157.2c8.5-1.7 18.2-0.2 26.8 0.1 0.7 2.7-1.6 5.4-4.3 6.3-2.7 0.9-5.6 0.5-8.4 0.5-9.2 0.1-17.8 4.2-26.9 5.7-9.6 1.5-19.5 0-29.2 1.6-9.6 1.7-18.5 6.4-28 8.7-20.8 5-42.5-2.1-62.7-9.1-1.9-0.6-4.2-2.3-3.2-4 0.5-0.9 1.7-1.2 2.7-1.3l60.9-8.4c6.9-1 13.8-1.9 20.7-2.2 9.3-0.3 18.6 0.5 27.7 1.7 8.4 0 15.6 2.1 23.9 0.4z"/>
			<path id="Layer" class="s2" d="m251.3 161.3l-1 2.9c0 0-43.7 10.3-43.6 10.1 0.1-0.2-10.4-6.5-10.4-6.5l-0.4-1.3z"/>
			<path id="Layer" class="s14" d="m251.3 161.3l-1 2.9c0 0-43.7 10.3-43.6 10.1 0.1-0.2-10.4-6.5-10.4-6.5l-0.4-1.3z"/>
			<path id="Layer" class="s2" d="m196.5 166.5l38.7-8.4 16.1 3.2-43.9 10.5z"/>
			<path id="Layer" class="s15" d="m196.5 166.5l38.7-8.4 16.1 3.2-43.9 10.5z"/>
			<path id="Layer" class="s2" d="m181.1 172.8c-1.7-3.3 10.2-6.6 10.6-6.6 0.5 0.1 4.7 4 4.1 5.8-0.5 1.8-2.8 1.7-2.8 1.7l-9-0.3z"/>
			<path id="Layer" class="s16" d="m181.1 172.8c-1.7-3.3 10.2-6.6 10.6-6.6 0.5 0.1 4.7 4 4.1 5.8-0.5 1.8-2.8 1.7-2.8 1.7l-9-0.3z"/>
			<path id="Layer" class="s2" d="m78.9 264l-4.4 13.5c-12.8 4.6-23.6 0-23.6 0l-3.2-14.2c0 0 15.9 5.4 31.2 0.7z"/>
			<path id="Layer" class="s17" d="m78.9 264l-4.4 13.5c-12.8 4.6-23.6 0-23.6 0l-3.2-14.2c0 0 15.9 5.4 31.2 0.7z"/>
			<path id="Layer" class="s2" d="m83.8 251.5l-1.4 10.6-3.6 1.8c-15.3 4.7-31.4-0.6-31.4-0.6l-2.7-2-1.3-9.8z"/>
			<path id="Layer" class="s18" d="m83.8 251.5l-1.4 10.6-3.6 1.8c-15.3 4.7-31.4-0.6-31.4-0.6l-2.7-2-1.3-9.8z"/>
			<ellipse id="Layer" class="s2" cx="63.6" cy="250.9" rx="20.2" ry="3.7"/>
			<ellipse id="Layer" class="s19" cx="63.6" cy="250.9" rx="20.2" ry="3.7"/>
			<path id="Layer" class="s2" d="m54.4 170c3.9 1.9 7.1 3.9 7.4 8.5 0.4 5.7 0.5 11.5-0.6 17.1-0.5 2.7-1.2 5.5-1 8.2 0.2 3.1 1.7 6 2.4 9 2.1 8.2-1.1 16.8-1.5 25.2-0.2 4.4 0.4 8.8-0.2 13.2-1.7 0.5-3.4 0.4-5.1-0.1-1.6-0.5-3-1.5-4.1-2.8-0.9-1.1-1.4-2.4-2.1-3.6-0.6-1-1.4-2.1-1.9-3.3-0.5-1.6-0.3-3.4-0.4-5.2-0.2-2.7-1.2-5.4-3-7.5-2.1-2.6-5.4-4.8-5.5-8-0.1-3.3 2.9-6 2.8-9.3-0.2-2.9-2.8-5.1-3.3-7.9-0.7-3.8 2.5-7.4 2.3-11.3-0.2-5.7-7.2-9-8.6-14.6-0.8-3.3 0.5-6.7 1-10 0.7-4.1 0.2-8.3-1.3-12.2-0.7-1.6-1.5-3.2-1.9-4.9-0.3-1.8-0.1-3.8 1.2-5 1.2-1.1 3.1-1.3 4.7-0.8 4.3 1.2 6.3 6 7.4 10.3 1.1 4.3 2 9.2 5.4 12 1.8 1.3 3.9 2 5.9 3z"/>
			<path id="Layer" class="s2" d="m69 182.8c1.4-2.9 3.3-5.6 5.7-7.8 1.7-1.6 3.6-2.8 4.4-5.1 1.1-3 0.4-6.5-0.3-9.6-0.9-3.5-1.7-7.5 0.3-10.4 1.2-1.4 2.7-2.5 4.4-3 4.1-1.3 9-0.5 12 2.6 3 3.1 3.6 8.3 1.1 11.8-1.2 1.5-2.9 2.6-4.2 4-4 4.6-3.4 11.5-2.4 17.5 1 6 2.1 12.7-1.4 17.7-1.4 2.1-3.5 3.7-5 5.7-1.7 2.2-2.7 4.9-2.8 7.8-0.1 4.2 1.7 8.5 0.9 12.7-1.2 6.1-7.5 9.7-10.8 15.1-2.1 3.5-2.9 7.6-2.2 11.6q-3.2-0.5-6.2-1.7c-0.7-0.1-1.2-0.5-1.6-1-0.4-0.5-0.6-1.1-0.5-1.7-0.4-3.4-0.2-6.9 0.5-10.3 0.6-2.6 1.5-5.2 1.8-7.9 0.7-6.6-2.6-13.5-0.2-19.7 1.1-2.7 3.1-4.9 4-7.6 1.2-3.6 0.4-7.5 0.4-11.3 0.1-3.2 0.8-6.4 2.1-9.4z"/>
			<path id="Layer" class="s20" d="m62.7 225.7c-0.6 4.1-1.4 8.2-1.6 12.4v0.4q0 0.1 0 0.3c-0.8 3.3-1 6.8-0.6 10.2q0 0.9 0.4 1.6 0 0.3 0 0.6c-1.7 0.5-3.4 0.4-5.1-0.1-1.6-0.5-3.1-1.5-4.1-2.8-0.8-1.1-1.4-2.4-2.1-3.6-0.7-1-1.5-2.1-1.9-3.3-0.5-1.6-0.3-3.4-0.4-5.2-0.2-2.7-1.3-5.4-3-7.5-2.1-2.6-5.4-4.7-5.5-8-0.2-3.3 2.9-6 2.7-9.3-0.1-2.9-2.7-5.1-3.2-7.9-0.7-3.8 2.4-7.4 2.3-11.3-0.2-5.7-7.2-9-8.6-14.6-0.8-3.3 0.5-6.7 1-10 0.7-4.1 0.2-8.3-1.3-12.2-0.7-1.6-1.5-3.2-1.9-4.9-0.3-1.8-0.1-3.7 1.2-5 1.3-1.1 3.1-1.3 4.7-0.8 4.3 1.2 6.3 6 7.4 10.3 1.1 4.4 2 9.2 5.4 12 1.8 1.4 3.9 2.1 5.9 3 3.9 1.9 7.1 4 7.4 8.4 0.4 5.7 0.5 11.6-0.6 17.2-0.5 2.7-1.2 5.5-1 8.2 0.2 2.8 1.4 5.4 2.2 8.1q0.1 0.4 0.2 0.9c1.1 4.2 0.7 8.6 0.1 12.9z"/>
			<path id="Layer" class="s21" d="m60.6 250.3q-0.2-0.8-0.3-1.6c-0.2-3.3-0.1-6.7 0.4-10q0-0.1 0.1-0.3c-0.1 4 0.2 8-0.2 11.9z"/>
			<path id="Layer" class="s20" d="m96.5 161.3c-1.1 1.5-2.8 2.6-4.1 4-4 4.6-3.4 11.5-2.4 17.5 1 6 2.1 12.7-1.4 17.7-1.4 2.1-3.5 3.7-5.1 5.7-1.7 2.2-2.7 4.9-2.7 7.8-0.2 4.2 1.7 8.5 0.9 12.7-1.2 6.1-7.6 9.8-10.9 15.1-2.1 3.5-2.8 7.6-2.1 11.6q-3.2-0.5-6.3-1.7-0.8-0.3-1.4-0.9-0.1-0.1-0.2-0.2-0.4-0.7-0.4-1.6c-0.4-3.4-0.2-6.9 0.5-10.2q0.1-0.2 0.1-0.3c0.6-2.6 1.5-5.1 1.7-7.7q0.2-2.6-0.1-5.1c0.7-4.3 1-8.6-0.1-12.9q-0.1-0.4-0.2-0.9 0.1-0.4 0.3-0.8c1-2.6 3-4.9 3.9-7.6 1.2-3.6 0.4-7.5 0.4-11.2 0.1-6.6 3-12.9 7.7-17.3 1.7-1.6 3.7-2.8 4.5-5.1 1.1-3 0.4-6.5-0.3-9.6-0.9-3.5-1.8-7.5 0.3-10.4 1.1-1.5 2.7-2.4 4.4-3 4.1-1.3 9-0.5 12 2.6 3 3.1 3.6 8.4 1 11.8z"/>
			<path id="Layer" class="s2" d="m205.2 100.6c3.3 2.5 25.5 44.6 24.9 49.4-0.5 4.8-3.8 14.5-8.7 14.3-4.9-0.2-12.2-0.9-12.2-0.9l3.7-6.3h-6.7l-37.5 4.4 12.3 5.2c0 0-1.4 7-8.4 7-7 0-31.4-9-31.5-11.1-0.2-2.1-4.3-25.7 3.7-44.8 8-19.1 25.3-21.8 25.3-21.8 22.9-4 31.8 2.1 35.1 4.6z"/>
			<path id="Layer" class="s22" d="m190.5 60.3c0 0 3.2 1.7 2.9 7.4-0.3 5.7-2.1 14.3-3.8 16.5-1.8 2.2-8.1 3.1-8.1 3.1 0 0 3.4 8.1 6 10.2 2.5 2.1-2.6 9.7-7.5 7.2-4.9-2.5-10.7-8.8-10.7-8.8 0 0 4.2-7.6 2.8-11.7-1.4-4-6.7-18.1-2.8-21.9 4-3.8 12.6-9.4 21.2-2z"/>
			<path id="Layer" fill-rule="evenodd" class="s23" d="m167 149.8l8.4 10.3-6.7 1.2-8.3-4.4 2.7-33.6zm39.5-28.4c0 0 11.2 26.2 6.2 35.5l-3.8-0.8z"/>
			<path id="Layer" class="s24" d="m176.3 165.6c3.4-2.2 7.4-1.1 7.4-1.1 0 0 5.5-1.9 6.8-1.3 1.4 0.7 5.9 5.3 6.5 6.8 0.6 1.4-1.7 2.9-1.7 2.9 0 0-1-0.9-5.4-2.3-4.4-1.3-8.1 1.6-9.9 2.9-1.9 1.2-4.1 1.3-6-1.5-1.9-2.8 2.3-6.4 2.3-6.4z"/>
			<path id="Layer" class="s25" d="m221.2 156.9c2 0.3 4.6 2.2 4.6 2.2l-1.1 2.7c0 0-1.2 1.1-3.9 2.1-2.8 1-8.9 0.1-8.9 0.1l0.3-1.6c0 0-1-0.5-1.9 0.7-0.9 1.2-3.2 0.8-3.2 0.8 0 0 0.4-0.3 1.4-2.9 1-2.6 5-3.1 5-3.1 0 0 5.8-1.3 7.7-1z"/>
			<path id="Layer" class="s3" d="m234.4 185.5c0 0 13.7 10.4 12.5 24.5-1.2 14-3 34.9-3 34.9 0 0-5.5 2.3-9.2 0-3.6-2.3-5.8-34-7.6-37.1-1.9-3-12.7-16.6-24.4-17.8z"/>
			<path id="Layer" class="s1" d="m205.5 189.9c0 0 5.5 1.6 11.4 7.5 6 6 4.3 10.8 4.3 34.4 0 17-2.7 20-2.7 20 0 0-4.7 1.2-5.8-1.1-1.1-2.4-4.5-23.7-8.1-33.6-3.5-9.9-8.9-11.5-20.5-13.5-11.6-1.9-18.1-8.1-18.1-8.1z"/>
			<path id="Layer" class="s3" d="m218.7 252.7c0 0 0.3 1.5 5.5 1.3 5.2-0.2 6.3 6.5 5.9 6.8-0.5 0.3-14.1-0.4-14.1-0.4h-2.2l-1.1-8.9zm24.6-8c1.2 1.6 3.5 2.5 5.9 2.5 2.4 0 3.9-1.4 5.9-1.5 7.6-0.6 6.8 5.1 6.8 5.1l-24 3.2-2.2-8.6z"/>
			<path id="Layer" class="s2" d="m317.2 137.2l-88.6 4.8c-2.1 0.1-3.9-1.6-4.1-3.7v-63.3c0-2.5 2.1-4.6 4.6-4.7l88.2-1.8q0.8 0 1.6 0.3 0.8 0.3 1.4 0.9c0.9 0.8 1.3 1.9 1.4 3v59.7c-0.1 2.6-2 4.6-4.5 4.8z"/>
			<path id="Layer" class="s2" d="m322.2 137.2l-88.6 4.8c-2.1 0.1-4-1.6-4.1-3.7v-63.3c0-2.5 2-4.6 4.6-4.7l88.2-1.8c2.3 0 4.3 1.8 4.3 4.2v59.7c0 2.6-1.9 4.7-4.4 4.8z"/>
			<path id="Layer" class="s26" d="m322.2 137.2l-88.6 4.8c-2.1 0.1-4-1.6-4.1-3.7v-63.3c0-2.5 2-4.6 4.6-4.7l88.2-1.8c2.3 0 4.3 1.8 4.3 4.2v59.7c0 2.6-1.9 4.7-4.4 4.8z"/>
			<path id="Layer" class="s27" d="m296 161.3l-22.6 2.4c0 0-6.9-1.3-6.5-2.4 0.4-1 7.6-2 7.6-2v-40.9c-0.1-0.1-1.1-1.3-3.7-2.1q-0.7-0.2-1.5-0.3-0.7-0.1-1.3-0.4c-1.5-0.8 0.2-2.2 2.6-2.3q0.6 0 1.1 0.1h17.4c0 0 6.6 1.8 6.9 11.1 0.3 9.2 0 36.8 0 36.8z"/>
			<path id="Layer" class="s28" d="m277.5 161.4l-4.2 2.3c0 0-6.8-1.3-6.4-2.4 0.4-1 7.5-2 7.5-2v-40.9c-0.1-0.1-1.2-1.2-3.6-2.1q-1.4-0.5-2.8-0.7c-1.5-0.8 0.2-2.2 2.5-2.3 2.1 0.3 6 2.5 6.3 3.8 0.2 1.3 0.7 44.3 0.7 44.3z"/>
			<path id="Layer" class="s29" d="m193.4 247.2c-0.5 0.6-0.8 0.8-0.5 0.3q0.3-0.1 0.5-0.3z"/>
		</g>
	</g>
</svg>